{
  "source": "C:\\Users\\Peter\\Desktop\\stuff\\MIUN\\quantitative_research\\video_compression\\videos\\BVI-HD\\BubblesPitcher_1920x1080_60fps.mp4",
  "output": "C:\\Users\\Peter\\Desktop\\stuff\\MIUN\\quantitative_research\\video_compression\\compressed_videos\\BVI-HD\\h264\\12\\BubblesPitcher_1920x1080_60fps_h264.mp4",
  "codec": "h264",
  "ok": "Input #0, mov,mp4,m4a,3gp,3g2,mj2, from 'C:\\Users\\Peter\\Desktop\\stuff\\MIUN\\quantitative_research\\video_compression\\videos\\BVI-HD\\BubblesPitcher_1920x1080_60fps.mp4':\n  Metadata:\n    major_brand     : isom\n    minor_version   : 512\n    compatible_brands: isomiso2avc1mp41\n    encoder         : Lavf54.28.101\n  Duration: 00:00:05.00, start: 0.000000, bitrate: 188849 kb/s\n  Stream #0:0[0x1](und): Video: h264 (High 4:4:4 Predictive) (avc1 / 0x31637661), yuv420p(progressive), 1920x1080, 188844 kb/s, 60 fps, 60 tbr, 60 tbn (default)\n    Metadata:\n      handler_name    : VideoHandler\n      vendor_id       : [0][0][0][0]\n[out#0/mp4 @ 000001927775d740] Codec AVOption b:a (set bitrate (in bits/s)) has not been used for any stream. The most likely reason is either wrong type (e.g. a video option with no video streams) or that it is a private option of some decoder which was not actually used for any stream.\nStream mapping:\n  Stream #0:0 -> #0:0 (h264 (native) -> h264 (libx264))\nPress [q] to stop, [?] for help\n[libx264 @ 0000019277ef21c0] using cpu capabilities: MMX2 SSE2Fast SSSE3 SSE4.2 AVX FMA3 BMI2 AVX2\n[libx264 @ 0000019277ef21c0] profile High, level 5.0, 4:2:0, 8-bit\n[libx264 @ 0000019277ef21c0] 264 - core 165 r3222 b35605a - H.264/MPEG-4 AVC codec - Copyleft 2003-2025 - http://www.videolan.org/x264.html - options: cabac=1 ref=5 deblock=1:0:0 analyse=0x3:0x113 me=hex subme=8 psy=1 psy_rd=1.00:0.00 mixed_ref=1 me_range=16 chroma_me=1 trellis=2 8x8dct=1 cqm=0 deadzone=21,11 fast_pskip=1 chroma_qp_offset=-2 threads=18 lookahead_threads=3 sliced_threads=0 nr=0 decimate=1 interlaced=0 bluray_compat=0 constrained_intra=0 bframes=3 b_pyramid=2 b_adapt=1 b_bias=0 direct=3 weightb=1 open_gop=0 weightp=2 keyint=250 keyint_min=25 scenecut=40 intra_refresh=0 rc_lookahead=50 rc=cbr mbtree=1 bitrate=12000 ratetol=1.0 qcomp=0.60 qpmin=0 qpmax=69 qpstep=4 vbv_maxrate=12000 vbv_bufsize=12000 nal_hrd=none filler=0 ip_ratio=1.40 aq=1:1.00\nOutput #0, mp4, to 'C:\\Users\\Peter\\Desktop\\stuff\\MIUN\\quantitative_research\\video_compression\\compressed_videos\\BVI-HD\\h264\\12\\BubblesPitcher_1920x1080_60fps_h264.mp4':\n  Metadata:\n    major_brand     : isom\n    minor_version   : 512\n    compatible_brands: isomiso2avc1mp41\n    encoder         : Lavf62.3.100\n  Stream #0:0(und): Video: h264 (avc1 / 0x31637661), yuv420p(tv, progressive), 1920x1080, q=2-31, 12000 kb/s, 60 fps, 15360 tbn (default)\n    Metadata:\n      encoder         : Lavc62.11.100 libx264\n      handler_name    : VideoHandler\n      vendor_id       : [0][0][0][0]\n    Side data:\n      cpb: bitrate max/min/avg: 12000000/0/12000000 buffer size: 12000000 vbv_delay: N/A\nframe=    0 fps=0.0 q=0.0 size=       0KiB time=N/A bitrate=N/A speed=N/A elapsed=0:00:00.52    \nframe=    0 fps=0.0 q=0.0 size=       0KiB time=N/A bitrate=N/A speed=N/A elapsed=0:00:01.09    \nframe=    3 fps=1.7 q=26.0 size=       0KiB time=00:00:00.01 bitrate=  23.0kbits/s speed=0.00917x elapsed=0:00:01.81    \nframe=    6 fps=2.4 q=27.0 size=       0KiB time=00:00:00.06 bitrate=   5.8kbits/s speed=0.0267x elapsed=0:00:02.49    \nframe=   24 fps=7.6 q=28.0 size=     512KiB time=00:00:00.36 bitrate=11440.0kbits/s speed=0.116x elapsed=0:00:03.15    \nframe=   34 fps=9.0 q=27.0 size=     768KiB time=00:00:00.51 bitrate=12177.7kbits/s speed=0.137x elapsed=0:00:03.78    \nframe=   49 fps= 11 q=28.0 size=    1280KiB time=00:00:00.73 bitrate=14299.3kbits/s speed=0.164x elapsed=0:00:04.46    \nframe=   61 fps= 12 q=28.0 size=    1536KiB time=00:00:00.95 bitrate=13245.6kbits/s speed=0.185x elapsed=0:00:05.14    \nframe=   61 fps= 11 q=28.0 size=    1536KiB time=00:00:00.98 bitrate=12796.6kbits/s speed=0.171x elapsed=0:00:05.74    \nframe=   79 fps= 12 q=28.0 size=    2048KiB time=00:00:01.28 bitrate=13073.5kbits/s speed=0.203x elapsed=0:00:06.33    \nframe=   92 fps= 13 q=28.0 size=    2304KiB time=00:00:01.46 bitrate=12869.1kbits/s speed=0.213x elapsed=0:00:06.88    \nframe=  106 fps= 14 q=30.0 size=    2816KiB time=00:00:01.73 bitrate=13309.1kbits/s speed=0.232x elapsed=0:00:07.45    \nframe=  109 fps= 14 q=30.0 size=    2816KiB time=00:00:01.78 bitrate=12935.9kbits/s speed=0.224x elapsed=0:00:07.96    \nframe=  114 fps= 13 q=31.0 size=    2816KiB time=00:00:01.86 bitrate=12358.4kbits/s speed=0.22x elapsed=0:00:08.48    \nframe=  122 fps= 14 q=31.0 size=    3072KiB time=00:00:01.98 bitrate=12688.8kbits/s speed=0.22x elapsed=0:00:09.00    \nframe=  129 fps= 14 q=31.0 size=    3328KiB time=00:00:02.11 bitrate=12880.3kbits/s speed=0.222x elapsed=0:00:09.53    \nframe=  138 fps= 14 q=32.0 size=    3328KiB time=00:00:02.26 bitrate=12028.0kbits/s speed=0.226x elapsed=0:00:10.04    \nframe=  148 fps= 14 q=32.0 size=    3584KiB time=00:00:02.43 bitrate=12066.0kbits/s speed=0.23x elapsed=0:00:10.56    \nframe=  156 fps= 14 q=33.0 size=    3840KiB time=00:00:02.56 bitrate=12256.2kbits/s speed=0.232x elapsed=0:00:11.08    \nframe=  166 fps= 14 q=34.0 size=    4096KiB time=00:00:02.73 bitrate=12276.2kbits/s speed=0.235x elapsed=0:00:11.63    \nframe=  173 fps= 14 q=34.0 size=    4352KiB time=00:00:02.83 bitrate=12583.0kbits/s speed=0.233x elapsed=0:00:12.17    \nframe=  178 fps= 14 q=34.0 size=    4352KiB time=00:00:02.93 bitrate=12154.1kbits/s speed=0.229x elapsed=0:00:12.79    \nframe=  185 fps= 14 q=34.0 size=    4608KiB time=00:00:03.05 bitrate=12376.8kbits/s speed=0.229x elapsed=0:00:13.31    \nframe=  193 fps= 14 q=34.0 size=    4864KiB time=00:00:03.16 bitrate=12583.0kbits/s speed=0.229x elapsed=0:00:13.83    \nframe=  204 fps= 14 q=35.0 size=    5120KiB time=00:00:03.35 bitrate=12520.4kbits/s speed=0.232x elapsed=0:00:14.41    \nframe=  214 fps= 14 q=35.0 size=    5632KiB time=00:00:03.53 bitrate=13057.8kbits/s speed=0.236x elapsed=0:00:14.96    \nframe=  223 fps= 14 q=35.0 size=    5888KiB time=00:00:03.66 bitrate=13155.0kbits/s speed=0.237x elapsed=0:00:15.49    \nframe=  232 fps= 14 q=36.0 size=    6144KiB time=00:00:03.83 bitrate=13130.1kbits/s speed=0.239x elapsed=0:00:16.04    \nframe=  243 fps= 15 q=36.0 size=    6400KiB time=00:00:04.01 bitrate=13052.9kbits/s speed=0.243x elapsed=0:00:16.56    \nframe=  253 fps= 15 q=36.0 size=    6656KiB time=00:00:04.18 bitrate=13034.2kbits/s speed=0.245x elapsed=0:00:17.08    \nframe=  267 fps= 15 q=36.0 size=    6912KiB time=00:00:04.38 bitrate=12917.9kbits/s speed=0.249x elapsed=0:00:17.60    \nframe=  284 fps= 16 q=-1.0 size=    7424KiB time=00:00:04.68 bitrate=12986.0kbits/s speed=0.257x elapsed=0:00:18.20    \nframe=  296 fps= 16 q=-1.0 size=    7680KiB time=00:00:04.90 bitrate=12839.8kbits/s speed=0.262x elapsed=0:00:18.73    \n[mp4 @ 0000019277751480] Starting second pass: moving the moov atom to the beginning of the file\n[out#0/mp4 @ 000001927775d740] video:7800KiB audio:0KiB subtitle:0KiB other streams:0KiB global headers:0KiB muxing overhead: 0.039550%\nframe=  300 fps= 16 q=-1.0 Lsize=    7803KiB time=00:00:04.96 bitrate=12870.6kbits/s speed=0.264x elapsed=0:00:18.79    \n[libx264 @ 0000019277ef21c0] frame I:2     Avg QP:15.68  size: 51164\n[libx264 @ 0000019277ef21c0] frame P:207   Avg QP:27.49  size: 27562\n[libx264 @ 0000019277ef21c0] frame B:91    Avg QP:20.04  size: 23943\n[libx264 @ 0000019277ef21c0] consecutive B-frames: 59.3%  0.0%  2.0% 38.7%\n[libx264 @ 0000019277ef21c0] mb I  I16..4:  7.2% 92.4%  0.3%\n[libx264 @ 0000019277ef21c0] mb P  I16..4: 15.8% 24.7%  0.5%  P16..4: 26.0%  4.5%  1.7%  0.0%  0.0%    skip:26.9%\n[libx264 @ 0000019277ef21c0] mb B  I16..4:  4.3% 22.3%  0.0%  B16..8: 27.7%  7.4%  0.8%  direct:11.6%  skip:25.8%  L0:52.9% L1:43.3% BI: 3.8%\n[libx264 @ 0000019277ef21c0] 8x8 transform intra:66.0% inter:91.2%\n[libx264 @ 0000019277ef21c0] direct mvs  spatial:89.0% temporal:11.0%\n[libx264 @ 0000019277ef21c0] coded y,uvDC,uvAC intra: 28.4% 47.8% 9.9% inter: 15.1% 32.6% 1.3%\n[libx264 @ 0000019277ef21c0] i16 v,h,dc,p: 41% 32% 15% 12%\n[libx264 @ 0000019277ef21c0] i8 v,h,dc,ddl,ddr,vr,hd,vl,hu: 20% 17% 43%  3%  4%  4%  3%  3%  3%\n[libx264 @ 0000019277ef21c0] i4 v,h,dc,ddl,ddr,vr,hd,vl,hu: 12%  5% 14% 10% 14% 15% 10% 10%  9%\n[libx264 @ 0000019277ef21c0] i8c dc,h,v,p: 49% 28% 20%  3%\n[libx264 @ 0000019277ef21c0] Weighted P-Frames: Y:0.5% UV:0.5%\n[libx264 @ 0000019277ef21c0] ref P L0: 46.6%  6.6% 20.0% 10.3%  9.0%  7.5%\n[libx264 @ 0000019277ef21c0] ref B L0: 63.9% 23.5%  9.8%  2.7%\n[libx264 @ 0000019277ef21c0] ref B L1: 89.2% 10.8%\n[libx264 @ 0000019277ef21c0] kb/s:12778.52\n",
  "seconds": 19.3791925907135,
  "probe_out": {}
}